<?xml version="1.0" encoding="UTF-8" standalone="no"?>
<svg width="188px" height="45px" viewBox="0 0 188 45" version="1.1" xmlns="http://www.w3.org/2000/svg" xmlns:xlink="http://www.w3.org/1999/xlink">
    <!-- Generator: Sketch 48.2 (47327) - http://www.bohemiancoding.com/sketch -->
    <title>Group</title>
    <desc>Created with Sketch.</desc>
    <defs>
        <polygon id="path-1" points="1.98676203e-05 0.187749012 44.5144165 0.187749012 44.5144165 44.7021059 1.98676203e-05 44.7021059"></polygon>
    </defs>
    <g id="Desktop-HD" stroke="none" stroke-width="1" fill="none" fill-rule="evenodd" transform="translate(-195.000000, -39.000000)">
        <g id="Top" transform="translate(195.000000, 39.000000)">
            <g id="Page-1" transform="translate(0.000000, 0.183594)">
                <g id="Group">
                    <polygon id="Fill-1" fill="#101A22" points="61.5642718 19.2805321 61.5642718 5.51465536 70.688079 5.51465536 70.688079 7.11538952 63.4054041 7.11538952 63.4054041 11.9173933 69.16761 11.9173933 69.16761 13.5181275 63.4054041 13.5181275 63.4054041 19.2805321"></polygon>
                    <g id="Group-31" transform="translate(0.000000, 0.010927)">
                        <path d="M77.3509636,7.10446233 L77.3509636,12.3066 L80.7924328,12.3066 C81.2591232,12.3066 81.6723697,12.236666 82.0327683,12.0965993 C82.3929683,11.9565326 82.6959495,11.7632206 82.9431027,11.5162661 C83.1898585,11.2695102 83.3732367,10.9828205 83.4932371,10.6559981 C83.6134362,10.3293745 83.6734364,9.97255199 83.6734364,9.58553075 C83.6734364,9.21201949 83.60986,8.87208451 83.4833033,8.56512977 C83.3565479,8.25837372 83.1697922,7.9947304 82.9230364,7.77479584 C82.6762805,7.55466261 82.372902,7.38817195 82.012702,7.27452916 C81.6523034,7.1614824 81.2454145,7.10446233 80.7924328,7.10446233 L77.3509636,7.10446233 Z M75.5098312,19.2696049 L75.5098312,5.50372817 L80.7121676,5.50372817 C81.4854154,5.50372817 82.1726364,5.59372849 82.7730359,5.7739278 C83.3732367,5.95392844 83.8766822,6.22094926 84.2837697,6.57419555 C84.6902612,6.92783919 84.9972159,7.35797317 85.2042366,7.86479616 C85.4108598,8.37181783 85.5141714,8.94519735 85.5141714,9.58553075 C85.5141714,10.0927511 85.450595,10.5657991 85.3240383,11.0060656 C85.1972829,11.4463321 85.0039709,11.8434858 84.7437051,12.1965334 C84.483638,12.550177 84.1665507,12.8537543 83.7934368,13.1068678 C83.4201243,13.3605773 82.9864141,13.5540879 82.4929024,13.687201 L85.9943718,19.2696049 L83.9937024,19.2696049 L80.5719022,13.9073342 L77.3509636,13.9073342 L77.3509636,19.2696049 L75.5098312,19.2696049 Z" id="Fill-2" fill="#101A22"></path>
                        <path d="M96.3929452,7.4245893 L96.3128787,7.4245893 L93.9116781,14.0675268 L98.7939471,14.0675268 L96.3929452,7.4245893 Z M90.1900755,19.2696645 L95.312544,5.50378777 L97.4733464,5.50378777 L102.595616,19.2696645 L100.674815,19.2696645 L99.3742803,15.6680623 L93.3313449,15.6680623 L92.0308105,19.2696645 L90.1900755,19.2696645 Z" id="Fill-4" fill="#101A22"></path>
                        <polygon id="Fill-6" fill="#101A22" points="107.229143 19.2696049 107.229143 5.50372817 116.513282 5.50372817 116.513282 7.10446233 109.070275 7.10446233 109.070275 11.4661997 114.992415 11.4661997 114.992415 13.0669339 109.070275 13.0669339 109.070275 17.6688707 116.673216 17.6688707 116.673216 19.2696049"></polygon>
                        <polygon id="Fill-8" fill="#101A22" points="121.741227 19.2696049 121.741227 5.50372817 123.982295 5.50372817 129.044565 16.7887352 129.084498 16.7887352 134.066503 5.50372817 136.30757 5.50372817 136.30757 19.2696049 134.467034 19.2696049 134.62677 8.38512913 134.546703 8.38512913 129.744501 19.2696049 128.304297 19.2696049 123.502094 8.62512999 123.422028 8.62512999 123.582558 19.2696049"></polygon>
                        <path d="M143.562252,14.4812899 C143.788941,15.1172524 144.115764,15.6701683 144.542918,16.1406335 C144.969475,16.6110988 145.479477,16.9732855 146.07332,17.227591 C146.666965,17.4818966 147.317033,17.6088507 148.024321,17.6088507 C148.731211,17.6088507 149.381478,17.4811019 149.974924,17.2250082 C150.568369,16.9691133 151.078769,16.6043438 151.505326,16.1306997 C151.93248,15.6570556 152.258905,15.1003649 152.486191,14.4604289 C152.71288,13.8204928 152.826325,13.1290996 152.826325,12.3868453 C152.826325,11.644591 152.71288,10.9531979 152.486191,10.3132618 C152.258905,9.67332577 151.93248,9.11643637 151.505326,8.6427923 C151.078769,8.16914823 150.568369,7.80437873 149.974924,7.5482851 C149.381478,7.29258883 148.731211,7.16444268 148.024321,7.16444268 C147.317033,7.16444268 146.666965,7.29358221 146.07332,7.55126524 C145.479477,7.80894828 144.969475,8.17630058 144.542918,8.65292479 C144.115764,9.129549 143.788941,9.69021324 143.562252,10.3341228 C143.335364,10.9786284 143.222317,11.6743925 143.222317,12.4218124 C143.222317,13.1592984 143.335364,13.8457247 143.562252,14.4812899 M141.781517,9.66398798 C142.101584,8.81285913 142.561917,8.07577042 143.162118,7.45212582 C143.76212,6.8286799 144.475765,6.34470467 145.303251,6.00020013 C146.129744,5.65609295 147.0369,5.483642 148.024321,5.483642 C148.997437,5.483642 149.898235,5.65509957 150.725125,5.99781602 C151.552214,6.34033379 152.266256,6.8219249 152.86606,7.44219201 C153.466459,8.06265779 153.929772,8.79636901 154.256992,9.64292831 C154.583417,10.4896863 154.746927,11.4043915 154.746927,12.3868453 C154.746927,13.3692992 154.583417,14.2840044 154.256992,15.1305637 C153.929772,15.9773217 153.466459,16.7110329 152.86606,17.3313 C152.266256,17.9517658 151.552214,18.4333569 150.725125,18.7758747 C149.898235,19.1185911 148.997437,19.2896513 148.024321,19.2896513 C147.0369,19.2896513 146.129744,19.1193858 145.303251,18.7784575 C144.475765,18.4377278 143.76212,17.9585208 143.162118,17.3412338 C142.561917,16.7241455 142.101584,15.9942092 141.781517,15.1516234 C141.46145,14.309435 141.301317,13.3992993 141.301317,12.4218124 C141.301317,11.4343916 141.46145,10.5151168 141.781517,9.66398798" id="Fill-10" fill="#101A22"></path>
                        <polygon id="Fill-12" fill="#101A22" points="159.728733 19.2696049 159.728733 5.50372817 161.570064 5.50372817 161.570064 11.5063323 168.932806 11.5063323 168.932806 5.50372817 170.773739 5.50372817 170.773739 19.2696049 168.932806 19.2696049 168.932806 13.1068678 161.570064 13.1068678 161.570064 19.2696049"></polygon>
                        <path d="M178.16062,15.231372 C178.16062,15.5903799 178.237309,15.9233612 178.390687,16.2311107 C178.543668,16.5388601 178.770754,16.807669 179.070954,17.0383321 C179.371154,17.2691938 179.734135,17.4485984 180.161091,17.5767446 C180.588443,17.7048907 181.068445,17.7688645 181.60189,17.7688645 C182.162356,17.7688645 182.659046,17.7144272 183.092558,17.6049566 C183.526069,17.495486 183.896203,17.334757 184.202959,17.1221734 C184.509914,16.9093912 184.739584,16.648728 184.893359,16.3395879 C185.046538,16.0306464 185.123625,15.6827643 185.123625,15.2963391 C185.123625,14.9486558 185.043558,14.6526282 184.883624,14.4078591 C184.723094,14.1634874 184.503159,13.960639 184.223026,13.7993139 C183.942892,13.6387836 183.622626,13.5068626 183.262823,13.4035509 C182.902425,13.300438 182.482423,13.2104377 182.002422,13.1327553 L181.121889,12.9785825 C180.441224,12.8627543 179.847579,12.7342108 179.340757,12.592356 C178.834132,12.4506999 178.363667,12.2478515 177.930354,11.9836121 C177.496843,11.7197701 177.153332,11.3720868 176.900019,10.9407607 C176.64631,10.509236 176.519753,9.97817453 176.519753,9.34698023 C176.519753,8.79326966 176.640151,8.27790359 176.880152,7.80167673 C177.120153,7.3252512 177.463068,6.91299808 177.910288,6.5655134 C178.356912,6.21783004 178.894132,5.95080923 179.521353,5.76385492 C180.147978,5.57729796 180.841755,5.48372147 181.60189,5.48372147 C182.335602,5.48372147 183.012491,5.57153636 183.632957,5.74736479 C184.253224,5.92299456 184.786471,6.17670407 185.233691,6.50908936 C185.680315,6.84107729 186.026807,7.24419131 186.27396,7.71922611 C186.520716,8.19465826 186.644094,8.72512372 186.644094,9.31082117 L184.803359,9.31082117 C184.803359,8.95201194 184.723094,8.62856709 184.563358,8.34028792 C184.403423,8.05200875 184.179913,7.80843172 183.893024,7.60995419 C183.605739,7.41147667 183.269181,7.26068143 182.882557,7.15816451 C182.495337,7.05564759 182.068779,7.00438913 181.60189,7.00438913 C181.148114,7.00438913 180.728311,7.05286612 180.341687,7.14942276 C179.954467,7.24617807 179.614334,7.3878342 179.321286,7.57419248 C179.027245,7.76134546 178.801152,7.99618073 178.640622,8.27929432 C178.480687,8.56260659 178.400621,8.88466071 178.400621,9.24525802 C178.400621,9.60585533 178.487244,9.90843918 178.660887,10.1528109 C178.834132,10.3977787 179.070954,10.5974483 179.371154,10.7520183 C179.671354,10.9061911 180.01109,11.0319531 180.391555,11.1287084 C180.771821,11.2252651 181.22818,11.3184442 181.761825,11.4084445 L182.642556,11.5632133 C183.295804,11.6792402 183.869382,11.8111612 184.363291,11.9593736 C184.856405,12.1073874 185.306606,12.3165934 185.713693,12.5871904 C186.120185,12.8573901 186.444027,13.2116297 186.684028,13.6493134 C186.924227,14.0869971 187.044426,14.6277937 187.044426,15.2717033 C187.044426,15.8643544 186.920651,16.4083298 186.674491,16.904027 C186.427139,17.4001214 186.070516,17.8248912 185.603626,18.1789321 C185.136539,18.5331718 184.566338,18.8065503 183.893024,18.9998622 C183.219115,19.1929755 182.455403,19.2897308 181.60189,19.2897308 C180.775,19.2897308 180.031156,19.1919821 179.371154,18.9968821 C178.710754,18.801782 178.153468,18.5254234 177.700486,18.168005 C177.246709,17.8101891 176.903397,17.3808498 176.669952,16.8801858 C176.436508,16.3791244 176.319686,15.8297847 176.319686,15.231372 L178.16062,15.231372 Z" id="Fill-14" fill="#101A22"></path>
                        <polygon id="Fill-16" fill="#101A22" points="61.5642718 39.3861466 61.5642718 25.6204685 63.4054041 25.6204685 63.4054041 31.622874 70.7683442 31.622874 70.7683442 25.6204685 72.6090792 25.6204685 72.6090792 39.3861466 70.7683442 39.3861466 70.7683442 33.2234095 63.4054041 33.2234095 63.4054041 39.3861466"></polygon>
                        <path d="M79.8639196,34.5977322 C80.0906091,35.2338934 80.4176301,35.7866106 80.8445853,36.2570759 C81.2713418,36.7277398 81.7813436,37.0899265 82.3749881,37.3438347 C82.9686326,37.5985376 83.6188998,37.725293 84.3259884,37.725293 C85.033077,37.725293 85.6833442,37.5977429 86.27679,37.3414506 C86.8702358,37.0855556 87.3804363,36.7207861 87.8071928,36.2473407 C88.2343467,35.7736967 88.5607717,35.2166086 88.7878586,34.5770699 C89.0145481,33.9369352 89.1281909,33.2457407 89.1281909,32.5032877 C89.1281909,31.7612321 89.0145481,31.0698389 88.7878586,30.4297042 C88.5607717,29.7899668 88.2343467,29.23268 87.8071928,28.7592346 C87.3804363,28.2857893 86.8702358,27.9210197 86.27679,27.6649261 C85.6833442,27.4088325 85.033077,27.280885 84.3259884,27.280885 C83.6188998,27.280885 82.9686326,27.4100246 82.3749881,27.6675089 C81.7813436,27.9251919 81.2713418,28.2929416 80.8445853,28.7691685 C80.4176301,29.2459913 80.0906091,29.8068543 79.8639196,30.4507638 C79.63723,31.0950708 79.5241833,31.7908348 79.5241833,32.5382547 C79.5241833,33.2757408 79.63723,33.9625644 79.8639196,34.5977322 M78.0833834,29.7804303 C78.4034508,28.9295002 78.8635849,28.1924114 79.4639844,27.5683695 C80.0639865,26.9451222 80.7774327,26.4613457 81.6049191,26.1166425 C82.4316108,25.7725353 83.3387663,25.6000843 84.3259884,25.6000843 C85.2993031,25.6000843 86.1999023,25.7713432 87.0269914,26.1142584 C87.8538817,26.4567761 88.567924,26.9381686 89.1679261,27.5586344 C89.7683256,28.1789015 90.2314398,28.91301 90.5586596,29.759172 C90.8852832,30.6063273 91.0485951,31.5210325 91.0485951,32.5032877 C91.0485951,33.4855428 90.8852832,34.4006454 90.5586596,35.2474034 C90.2314398,36.0935653 89.7683256,36.8276739 89.1679261,37.4475437 C88.567924,38.0684068 87.8538817,38.5499979 87.0269914,38.8925157 C86.1999023,39.2352321 85.2993031,39.4060937 84.3259884,39.4060937 C83.3387663,39.4060937 82.4316108,39.2360268 81.6049191,38.8948998 C80.7774327,38.5539714 80.0639865,38.0749631 79.4639844,37.4578748 C78.8635849,36.8407865 78.4034508,36.1108502 78.0833834,35.2680657 C77.7631174,34.4262747 77.6031831,33.5157416 77.6031831,32.5382547 C77.6031831,31.550834 77.7631174,30.6315592 78.0833834,29.7804303" id="Fill-18" fill="#101A22"></path>
                        <polygon id="Fill-20" fill="#101A22" points="96.0303214 39.3861466 96.0303214 25.6204685 98.2711903 25.6204685 103.33346 36.9054755 103.373593 36.9054755 108.355597 25.6204685 110.596466 25.6204685 110.596466 39.3861466 108.75593 39.3861466 108.915665 28.5016708 108.835599 28.5016708 104.033595 39.3861466 102.593192 39.3861466 97.7911886 28.7416717 97.7111221 28.7416717 97.8714538 39.3861466"></polygon>
                        <polygon id="Fill-22" fill="#101A22" points="116.788687 39.3861466 116.788687 25.6204685 126.072825 25.6204685 126.072825 27.2212027 118.630018 27.2212027 118.630018 31.5827414 124.551959 31.5827414 124.551959 33.1832769 118.630018 33.1832769 118.630018 37.7854124 126.232959 37.7854124 126.232959 39.3861466"></polygon>
                        <path d="M132.485855,35.3478144 C132.485855,35.7070209 132.562544,36.0400022 132.716121,36.3473543 C132.869101,36.6555011 133.09599,36.92431 133.396189,37.1549731 C133.696389,37.3854375 134.059569,37.5650408 134.486524,37.6935843 C134.913678,37.8215318 135.393878,37.8851081 135.927324,37.8851081 C136.487591,37.8851081 136.984281,37.8310682 137.417992,37.7213989 C137.851304,37.6119284 138.221438,37.451398 138.528393,37.2386158 C138.835149,37.0258336 139.065017,36.7655677 139.218793,36.4558315 C139.371773,36.14689 139.44886,35.7992067 139.44886,35.4129801 C139.44886,35.0648994 139.368793,34.7690706 139.208859,34.5243015 C139.048527,34.2799298 138.828593,34.0770814 138.548459,33.9161536 C138.268127,33.7550272 137.94806,33.6233049 137.588257,33.520192 C137.227859,33.417079 136.807857,33.3266813 136.327657,33.2491976 L135.447124,33.0950249 C134.766658,32.9793953 134.173013,32.8506532 133.66619,32.7091957 C133.159367,32.5673409 132.688902,32.3640951 132.255788,32.1000545 C131.822276,31.8360138 131.478567,31.4887278 131.225453,31.0574018 C130.971744,30.625877 130.845187,30.0948156 130.845187,29.4634226 C130.845187,28.9099107 130.965386,28.3943459 131.205585,27.9181191 C131.445586,27.4418922 131.788501,27.0294404 132.235523,26.6821544 C132.682346,26.3344711 133.219367,26.0676489 133.846588,25.8806946 C134.473213,25.6935416 135.16699,25.6001638 135.927324,25.6001638 C136.660837,25.6001638 137.337925,25.6879787 137.958192,25.8642045 C138.578658,26.0392382 139.111905,26.2931464 139.558926,26.6255317 C140.005749,26.9575196 140.35224,27.361031 140.599394,27.8354698 C140.845951,28.3111006 140.969329,28.8413674 140.969329,29.4272635 L139.128792,29.4272635 C139.128792,29.068653 139.048527,28.7448108 138.888792,28.4567303 C138.728659,28.1686498 138.505148,27.9252714 138.218458,27.7263965 C137.930974,27.5281177 137.594416,27.3775211 137.207792,27.2744082 C136.820771,27.1724873 136.394014,27.1210302 135.927324,27.1210302 C135.473548,27.1210302 135.053546,27.1693085 134.666922,27.2658651 C134.279901,27.3626204 133.939569,27.5040779 133.646521,27.6910322 C133.352679,27.8779865 133.126387,28.1126231 132.966055,28.3959353 C132.806121,28.6788503 132.726054,29.0011031 132.726054,29.3617004 C132.726054,29.7224963 132.812479,30.0248815 132.986122,30.2692533 C133.159367,30.5144197 133.396189,30.7140893 133.696389,30.8684607 C133.996589,31.0226334 134.336325,31.1485941 134.71679,31.2453494 C135.097255,31.3419061 135.553614,31.4350852 136.087258,31.5250855 L136.967791,31.6796556 C137.621237,31.7956825 138.194617,31.9276035 138.688725,32.075816 C139.18164,32.2238297 139.632039,32.4332345 140.039127,32.7036328 C140.445618,32.9740311 140.769262,33.3284694 141.009461,33.7659544 C141.249462,34.2036381 141.36986,34.7444347 141.36986,35.3879469 C141.36986,35.9809954 141.246085,36.5249709 140.999726,37.0208667 C140.752374,37.5167625 140.395751,37.9415322 139.92906,38.2953745 C139.461774,38.6498128 138.891772,38.9231913 138.218458,39.1167019 C137.544548,39.3094178 136.780638,39.4061731 135.927324,39.4061731 C135.100235,39.4061731 134.35659,39.3084245 133.696389,39.1133244 C133.035989,38.9186217 132.478901,38.6418658 132.025919,38.2844473 C131.571944,37.9268301 131.228632,37.4972922 130.995187,36.9964295 C130.761743,36.4957655 130.64512,35.9462271 130.64512,35.3478144 L132.485855,35.3478144 Z" id="Fill-24" fill="#101A22"></path>
                        <g id="Group-28">
                            <mask id="mask-2" fill="white">
                                <use xlink:href="#path-1"></use>
                            </mask>
                            <g id="Clip-27"></g>
                            <path d="M40.0684404,33.2694825 C36.5196861,39.086523 30.2023788,43.0340205 22.961426,43.2760081 L22.961426,29.5824495 C22.961426,24.7144852 26.9220361,20.7538751 31.7901991,20.7538751 C36.6583621,20.7538751 40.6189722,24.6228954 40.6189722,29.5824495 C40.6189722,29.5824495 40.6392371,30.6942415 40.5965217,31.3862307 C40.5335414,32.404645 40.0684404,33.2694825 40.0684404,33.2694825 M1.40823679,22.4450069 C1.40823679,20.9710282 1.56419761,19.5332085 1.85645031,18.1450579 L21.553209,18.1450579 L21.553209,43.2760081 C10.3822422,42.9026955 1.40823679,33.704782 1.40823679,22.4450069 M21.553209,1.61380706 L21.553209,16.7368409 L2.20910057,16.7368409 C4.63652641,8.22436035 12.3457591,1.92135782 21.553209,1.61380706 M43.1063982,22.4450069 C43.1063982,24.7677304 42.7185823,27.0004536 42.0144738,29.0889378 C41.7559961,23.6726272 37.2692914,19.3456581 31.7901991,19.3456581 C28.031444,19.3456581 24.7415647,21.3832813 22.961426,24.4103119 L22.961426,1.61380706 C34.1321941,1.98692097 43.1063982,11.1848344 43.1063982,22.4450069 M22.2573175,0.187709276 C9.98469111,0.187709276 1.98676203e-05,10.1723805 1.98676203e-05,22.4450069 C1.98676203e-05,34.717832 9.98469111,44.7021059 22.2573175,44.7021059 C34.5299439,44.7021059 44.5144165,34.717832 44.5144165,22.4450069 C44.5144165,10.1723805 34.5299439,0.187709276 22.2573175,0.187709276" id="Fill-26" fill="#101A22" mask="url(#mask-2)"></path>
                        </g>
                        <path d="M31.7901991,32.2072204 C30.3493992,32.2072204 29.1772096,31.0352295 29.1772096,29.5944297 C29.1772096,28.1536298 30.3493992,26.9810429 31.7901991,26.9810429 C33.2308002,26.9810429 34.4029898,28.1536298 34.4029898,29.5944297 C34.4029898,31.0352295 33.2308002,32.2072204 31.7901991,32.2072204 M31.7901991,25.572826 C29.572774,25.572826 27.7689927,27.3768059 27.7689927,29.5944297 C27.7689927,31.8114574 29.572774,33.6152387 31.7901991,33.6152387 C34.0072268,33.6152387 35.8112067,31.8114574 35.8112067,29.5944297 C35.8112067,27.3768059 34.0072268,25.572826 31.7901991,25.572826" id="Fill-29" fill="#101A22"></path>
                    </g>
                </g>
            </g>
        </g>
    </g>
</svg>